<svg xmlns="http://www.w3.org/2000/svg" version="1.1" xmlns:xlink="http://www.w3.org/1999/xlink" viewBox="0 0 10.271569769439646 3.518476728257938"><g transform="matrix(1,0,0,1,0.4865088268744904,1.1524883641289692)"><g clip-path="url(#SvgjsClipPath1001)"><g clip-path="url(#SvgjsClipPath1000ac158792-80d2-4da0-8f17-c4799cf10b38)"><path d=" M 6.722654971702312 1.8470432433665107 L 6.688359864411023 1.8166981145572825 C 6.679829917006918 1.8231943591298698 6.6695551516590665 1.8269968313452165 6.658851201633288 1.8276186433017991 C 6.655701286552285 1.8274976827305816 6.652578941554229 1.826982495805903 6.64955713461668 1.826085122244058 L 6.667401743288571 1.879526007589563 L 6.7484460076734045 1.879526007589563 L 6.753975977548286 1.8725554573271057 C 6.742957986853855 1.864786242914775 6.732492505452427 1.8562616890729569 6.7226549717023145 1.8470432433665098 Z" fill="#000000" transform="matrix(1,0,0,1,0,0)" fill-rule="nonzero"></path></g><g clip-path="url(#SvgjsClipPath1000ac158792-80d2-4da0-8f17-c4799cf10b38)"><path d=" M 6.607036778015692 1.8688378305204618 L 6.5168378576195005 1.8253415968827293 L 6.511679650425281 1.837191532328906 C 6.510703773388536 1.8395150490830585 6.509913777692125 1.841838565837211 6.509170252330797 1.8443944342667788 C 6.506707324571398 1.8521085098905634 6.503919104466414 1.8608449328861774 6.4952291518058844 1.8633078606455786 L 6.487747427857513 1.8653060850541503 C 6.474085149343099 1.8687913601853778 6.465952840703565 1.8714866396201963 6.461212866525092 1.879526007589563 L 6.593699791846857 1.879526007589563 Z" fill="#000000" transform="matrix(1,0,0,1,0,0)" fill-rule="nonzero"></path></g><g clip-path="url(#SvgjsClipPath1000ac158792-80d2-4da0-8f17-c4799cf10b38)"><path d=" M 9.076052151313037 1.7727836479038035 L 9.060716940735631 1.7867247484287185 C 9.057047872956772 1.789638053026966 9.053074850241256 1.7921465105061736 9.048867005289454 1.794206472377088 L 9.051608755059355 1.7963905781259921 L 9.053746390473174 1.7954611714243303 L 9.058068131635897 1.8016881963254576 L 9.070057478087325 1.813677542776884 L 9.066386321615763 1.8153040045047906 L 9.082465057554497 1.8403979854496355 C 9.087521300615023 1.834981154618701 9.090213366637249 1.8277744437144863 9.089946781502867 1.8203692710288424 L 9.091852065241273 1.7692519024374906 L 9.072938638862473 1.771947181872307 Z" fill="#000000" transform="matrix(1,0,0,1,0,0)" fill-rule="nonzero"></path></g><g clip-path="url(#SvgjsClipPath1000ac158792-80d2-4da0-8f17-c4799cf10b38)"><path d=" M 9.034972375099626 1.8641443266770739 C 9.03353179471205 1.8641443266770739 9.032137684659558 1.864934322373485 9.030650633936903 1.864934322373485 C 9.012439352159445 1.86431119981484 8.994923601897922 1.857787642920417 8.98074149405771 1.8463461883402665 L 8.964523347113726 1.8342639012186743 L 8.983111481146945 1.8263174739194743 C 8.997563755357774 1.8201369193534283 9.014711309003419 1.8127946064103084 9.032230625329726 1.8051270011216047 L 9.029210053549328 1.8004799676133012 C 9.028234176512584 1.8004799676133012 9.02725829947584 1.8010840819693814 9.026235952104013 1.8010840819693814 C 9.015084542245274 1.8004547708179568 9.004226206766953 1.797275170385066 8.994496713242292 1.7917900149527726 C 8.988887592759031 1.788520628646177 8.982675670710037 1.7864183751283251 8.976233871554653 1.7856094603867252 L 8.976233871554653 1.785609460386726 L 8.976233871554655 1.785609460386726 L 8.975443875858243 1.7798471388364292 L 8.975443875858243 1.7798471388364292 C 8.972570619517295 1.7796395225015291 8.970182141688493 1.7775543434446397 8.969588613637779 1.7747354019772934 C 8.969289078308032 1.7733220184876104 8.969574574311359 1.7718475766718078 8.970380027398901 1.7706481519653585 C 8.971185480486445 1.7694487272589092 8.972442253261331 1.7686265296984613 8.97386388446542 1.7683689660709163 L 8.97386388446542 1.7683689660709163 L 8.973445651449673 1.7652089832852682 L 8.922932397214403 1.7493625990219486 L 9.020984804239632 1.7559613866037411 L 9.021495977925545 1.7559613866037411 L 9.02186774060621 1.7559613866037411 L 9.133396544805521 1.7634895808871947 L 9.092920882948187 1.769251902437492 L 9.112763716028649 1.816465762881867 C 9.116155311373014 1.8265862782498634 9.124025572876667 1.834576565528082 9.134093599831766 1.838120939030567 C 9.235863731977098 1.7813311378730283 9.298956524729935 1.6739365024771709 9.2990168190415 1.557393644793883 L 9.2990168190415 0.560558486927451 L 8.41984454960534 0.560558486927451 C 8.448609632460261 0.6464354219639831 8.463267399607494 0.7364064916161083 8.463247842572907 0.8269729179585564 C 8.462710072995204 1.2918998595812656 8.085946431150326 1.6686635014260762 7.6210194895276935 1.6692012710036939 C 7.156092547905139 1.6686635014260345 6.779328906060294 1.2918998595811892 6.778791136482634 0.8269729179585575 C 6.778930312393184 0.7749419616728855 6.783955683471695 0.7230390579022582 6.7938010547144625 0.6719478801214943 L 6.791570478630473 0.6712043547601848 L 6.794033406389875 0.6707396514093543 C 6.800956718934456 0.6334265474022011 6.810364667725998 0.5966175596385891 6.8221944294501995 0.560558486927451 L 6.153672188945492 0.560558486927451 L 6.1815543899953225 0.5934594841662474 L 6.029503453603595 0.5762189898504361 L 6.081503758561524 0.560558486927451 L 5.942929219343879 0.560558486927451 L 5.942929219343879 0.6588897159631776 L 6.001156549202934 0.6681837829797864 L 5.942929219343879 0.6770131466455648 L 5.942929219343879 1.1679722367979526 L 5.996184223349051 1.1689016434996136 L 5.991072486489915 1.2011055857121655 L 6.014865298052434 1.2180672580174776 L 5.988377207055097 1.2180672580174776 L 5.98716897834294 1.2257813336412635 L 5.97039318737796 1.2148608048967469 L 5.942929219343879 1.1953432641618682 L 5.942929219343879 1.5572077634535515 C 5.943196055318741 1.6875183333610506 6.022122524376114 1.8047700273932672 6.142751660200975 1.8540602639640502 L 6.20088604938987 1.8540602639640538 L 6.1838314364143905 1.8680013644889675 C 6.210434575855809 1.8752413992390622 6.237863304063841 1.8790058203655637 6.265433344820218 1.879200715243981 L 6.386488567711557 1.879200715243981 C 6.388668746222875 1.877155360427885 6.39099875334342 1.8752758213506437 6.393459117974012 1.8735778046989333 C 6.418274276908357 1.856755543398871 6.420458382657262 1.8544784969798012 6.427196581244305 1.8384927017112331 L 6.429659509003704 1.832590969155686 L 6.520834306436641 1.817255758578281 L 6.517627853315911 1.8246910121915678 L 6.56307584102713 1.8227392581180801 C 6.56770630300568 1.822800041728037 6.572312515706945 1.8220611611923405 6.576691649206465 1.8205551523691783 C 6.575622831499552 1.8200439786832625 6.5736710774260665 1.8159081188608721 6.566793467833774 1.80763639921609 L 6.548670037151387 1.7855165197165594 L 6.600809753114564 1.7914647226071891 L 6.593467440171442 1.7849588756955632 L 6.584545135835497 1.77803479576819 C 6.548437685475972 1.74982730237278 6.547647689779561 1.7422061674191607 6.577202822892377 1.7036822596353156 L 6.595233312904596 1.6804470920937917 L 6.604527379921206 1.7808694862082555 L 6.619072594802199 1.7805906641977578 C 6.646025389150365 1.7801259608469269 6.6729317131634485 1.779568316825931 6.699977448181783 1.779196554145266 L 6.707691523805567 1.772923058909054 L 6.709132104193143 1.7750606943228742 C 6.7191145634316465 1.7673231221635222 6.731627616478159 1.7635940666198597 6.744217207180841 1.764604868929188 L 6.762201226857981 1.758563725368394 C 6.7580020645459635 1.7536131799749484 6.754699548624641 1.7479674503761125 6.752442456490541 1.74188087507358 L 6.745564846898251 1.7239897960666068 L 6.840689622813247 1.7348173841409569 L 6.8158279935438175 1.7523831708023478 C 6.806245079470686 1.7608949568256134 6.794300620100582 1.7662918428096637 6.781579356587613 1.7678577923850005 C 6.7769438409388165 1.767871620799049 6.77240524418977 1.7665310388411473 6.768521192429275 1.7640007545731091 L 6.759227125412667 1.769902487128657 C 6.770295064493161 1.776074770796026 6.78091637210182 1.7830158884876486 6.79101283460947 1.7906747269107788 L 6.811645663386344 1.8053593527970215 L 6.7870628561274104 1.8114004963578179 C 6.7829734666401045 1.8123763733945606 6.778977017822961 1.813584602106721 6.775073509675983 1.814746360483797 C 6.765872046098496 1.818017951481567 6.756246216516736 1.8199431173979175 6.746494253599912 1.8204622116990117 C 6.732697683449025 1.820608292851856 6.719899858684146 1.813285093125288 6.713035612340116 1.801316433644795 L 6.712431497984036 1.8024781920218729 L 6.709178574528225 1.8024781920218729 L 6.702393905606098 1.8071252255301764 L 6.702393905606098 1.8071252255301764 C 6.699838037176531 1.809076979603664 6.697235698411881 1.8111681446824015 6.694912181657729 1.812841076745391 L 6.82428559452893 1.8602408185300985 L 6.79761162219126 1.871811931965777 C 6.792369268084913 1.8741655644826922 6.7869456387832345 1.8760925846357264 6.781393475247277 1.8775742535160758 L 6.781672297257776 1.879572477924646 L 6.9790782806905565 1.879572477924646 L 6.980704742418464 1.865399025724317 L 7.001523452535668 1.879572477924646 L 8.845373407960789 1.879572477924646 C 8.836213850828239 1.875725230254643 8.82726362043341 1.871397475869621 8.81856002461787 1.866607254436476 L 8.803364225045716 1.858660827137276 L 8.837798743342253 1.8291521643595412 L 8.824136464827838 1.7873288627847996 L 8.84142342947873 1.7885835618320405 C 8.868158433036253 1.7910915093332882 8.892488867065799 1.80507938952449 8.908108360322903 1.8269215882755532 C 8.912901392352792 1.8324889687097565 8.918038692215859 1.8377504329199668 8.923490041235391 1.8426750318687062 L 8.93645526472356 1.8538279122886383 L 8.921305935486487 1.8617743395878383 C 8.909282333136053 1.8684205733787254 8.89686755364009 1.874333112113678 8.88412966742005 1.8794795372544781 L 8.976652104570396 1.8794795372544781 C 8.991357582347423 1.8793514990320732 9.006034343861188 1.8781556147605816 9.020566571223876 1.8759013214530849 L 9.021774799936036 1.8745536817356774 C 9.025569470313107 1.8703794311212363 9.03002893765871 1.866862104764142 9.034972375099626 1.8641443266770752 Z M 6.332304157004722 1.129215977338692 L 6.349033477634619 1.1896274129466535 L 6.270033907993439 1.2009661747069167 L 6.245265219394176 1.1352106505644057 Z M 6.182530267032063 1.2693240376140773 L 6.309766044489442 1.2507359035808587 L 6.343503507759736 1.321556694247421 Z M 6.356422260912824 1.7740848172861283 C 6.351294660479346 1.784681441339869 6.341077910267843 1.7918963628809816 6.329376525894489 1.7931841250052605 L 6.325937721098344 1.7936023580210079 C 6.318219221265666 1.7926789653388502 6.311100260469984 1.7889790878023457 6.305909006677549 1.7831930029624057 C 6.304153522952278 1.781614659031184 6.302307033037375 1.7801405704436548 6.300379036802667 1.7787783211295158 L 6.28992321140898 1.7717148301968941 L 6.335650021130698 1.7147886697201624 L 6.344432914461394 1.7279397745486635 C 6.357491078619732 1.7474108449484609 6.361255175761458 1.7620954708347032 6.356422260912824 1.7740848172861283 Z M 6.452058210513732 1.2753651811748727 C 6.4613331746726885 1.2667186281796088 6.473404039614957 1.261689101120329 6.486074495794527 1.2611917289745436 C 6.493194382018445 1.2614370645563362 6.500219812448215 1.262898731290048 6.506846735576644 1.2655134701372668 C 6.510121294207818 1.266887690147592 6.513582839740563 1.2677648238572479 6.51711667963 1.268115808901916 L 6.531522483505743 1.266582287844177 L 6.528269560049929 1.303758555910615 L 6.43110008939128 1.2926986161608496 Z M 6.572509319048987 1.7729695292441359 L 6.425895411861976 1.781938303915164 L 6.427150110909219 1.7684154364059976 C 6.4284977506266285 1.7544743358810826 6.432587140113937 1.712139860620428 6.477616894809407 1.712139860620428 C 6.485073047847122 1.712240805798802 6.492499776237105 1.7130971371645227 6.49978324464402 1.7146957290499958 L 6.518371378677236 1.7185062965268054 L 6.493184457062229 1.7504778870639406 L 6.504662629827742 1.7538237511899197 L 6.53607657634388 1.7519184674515151 L 6.5275725050236835 1.760283127766464 Z M 6.741196635400447 1.7079110601278704 C 6.728455020308635 1.71932768877946 6.712536542087619 1.726589886582937 6.695562766348891 1.728729770245074 C 6.675394640922851 1.7287297702450752 6.656806506889633 1.7151604324008263 6.607269129691107 1.6788206303658826 L 6.5607987946080595 1.644664934079843 L 6.763084163224563 1.6931799639065441 Z M 8.753640966506861 1.189720353616817 C 8.751549801428123 1.205194975199472 8.747739233951313 1.2339601126158777 8.72329583769763 1.2339601126158777 C 8.709819440523548 1.2339601126158777 8.693647763914647 1.2255954523009285 8.656750317858709 1.1994326536491746 L 8.62807812111247 1.1790786468828003 L 8.755406839240017 1.1762904267778174 Z M 9.004580775955311 1.3280160708239643 L 9.025492426742682 1.315097317670877 C 9.036349298868924 1.3073232631574463 9.049123907182 1.3026633431438714 9.062436343133703 1.3016209204967937 C 9.089203256141538 1.3016209204967937 9.097103213105656 1.3306648799236975 9.10007731455097 1.3415854086682146 L 9.105839636101269 1.362729411131001 Z M 8.923536511570479 1.1597934578233349 L 9.075448036956956 1.1684369401487817 L 9.066665143626262 1.2108178857445204 Z M 9.107651979169507 1.1876756588731623 C 9.110672550949907 1.1802868755949585 9.113971944740802 1.1728980923167533 9.117410749536948 1.1651375463578844 L 9.124567181139737 1.1490123400840662 L 9.206726733566564 1.1734557363377491 L 9.205983208205236 1.1993397129790067 L 9.118618978249108 1.2120261144566773 L 9.111462546646319 1.2027320474400685 C 9.107402761971906 1.198979116034062 9.105944299572931 1.1931817279981365 9.107744919839675 1.1879544808836626 Z M 9.154772898943717 1.3422824636944592 L 9.139019455350565 1.3262966684258908 C 9.127042598842777 1.3170926751819523 9.119568681304758 1.303210126994815 9.118479567243858 1.2881445233227105 C 9.119777845803446 1.2793426488793873 9.125057337820035 1.2716291053486555 9.132792430449436 1.267232872535339 L 9.137021230941993 1.264398182095273 L 9.167505770756472 1.27183343570856 Z M 9.25960997489107 1.2883304046630415 C 9.258292699231726 1.2900382159312884 9.257126541783286 1.2918574215508558 9.256124699759845 1.293767433867759 L 9.25287177630403 1.2975780013445664 C 9.245878779735957 1.3038473451429948 9.237040894700492 1.3076792694664907 9.22768485468902 1.308498530089083 C 9.212070822101115 1.308498530089083 9.20681967423673 1.2942786075536703 9.203706161786167 1.285774536233474 C 9.20282090982643 1.2829457920668692 9.20160423187214 1.2802316643226832 9.20008147564969 1.2776886979290216 L 9.193482688067897 1.2712757916875628 L 9.210258479032877 1.243393590637735 L 9.267277580179774 1.27824634195002 Z M 9.168202825782718 0.8663797621089774 L 9.169225173154544 0.8663797621089774 L 9.170805164547367 0.8663797621089774 L 9.225407808269948 0.8663797621089774 L 9.213743754164103 0.8715844396382785 L 9.242137128899845 0.8747908927590081 L 9.23749009539154 0.8883602306032582 C 9.23749009539154 0.8889643449593384 9.237908328407286 0.8918919760695697 9.238187150417783 0.8937972598079745 C 9.240664759885188 0.902712626353913 9.23922824288248 0.9122612393719275 9.234237171935725 0.9200529991298955 C 9.228199301943235 0.9271000741568859 9.21948615754506 0.9312965402209995 9.210212008697791 0.9316241125655741 L 9.20867848764005 0.9316241125655741 C 9.199384420623442 0.9316241125655741 9.194737387115136 0.9231665115804594 9.18916094690517 0.9123853938411935 L 9.18669801914577 0.9077383603328885 L 9.129493036658541 0.9131753895376048 L 9.120198969641931 0.8879884679225934 L 9.126704816553557 0.8850608368123619 L 9.082697409229912 0.8800420406233932 Z M 9.072613346516892 0.9004425177248513 L 9.192971514381982 1.0016084372006437 L 9.052259339750517 0.9955208233047644 L 9.04784465791763 0.9651292241604518 L 9.079258604433766 0.9642462877938737 Z M 8.910478347412143 1.0939449930106568 L 8.916054787622107 1.0634139828610945 L 9.00393019126415 1.0628098685050142 L 8.974607409826746 1.0840932819730495 C 8.969681554307943 1.087671497774445 8.965824516496049 1.0907850102250087 8.96261806337532 1.0933873489896584 C 8.957328910121554 1.0985964035619955 8.950830470614846 1.1024124405204798 8.943704636996522 1.1044937590745074 L 8.939847599184626 1.1048655217551722 C 8.934161832968883 1.1044844536747127 8.928656592565392 1.102713202414459 8.923815333580976 1.0997073145609542 C 8.922309867126694 1.0988900174087703 8.920758248665988 1.0981607567322387 8.91916830007267 1.097523208812051 Z" fill="#000000" transform="matrix(1,0,0,1,0,0)" fill-rule="nonzero"></path></g><g clip-path="url(#SvgjsClipPath1000ac158792-80d2-4da0-8f17-c4799cf10b38)"><path d=" M 8.44168560709437 -0.20355323284308308 L 8.426908040537961 -0.21070966444587186 C 8.408645198850323 -0.2195854984467342 8.397585259100559 -0.22492958698128496 8.396423500723483 -0.23677952242746153 C 8.395401153351655 -0.2477000511719783 8.403998165342019 -0.2556929488062625 8.421656892673576 -0.26930875698559426 L 8.14790014869935 -0.26930875698559426 L 8.098688063846403 -0.5846099805240643 C 8.084926349045233 -0.6349065006256458 8.037977500644311 -0.6688172263144873 7.985904560599851 -0.6660724779246445 L 7.2551120710838575 -0.6660724779246445 C 7.203032701918947 -0.6688039255741456 7.15607812751832 -0.634903032277482 7.142282097502221 -0.5846099805240643 L 7.0931164829843585 -0.26930875698559426 L 6.805883341836048 -0.26930875698559426 L 6.805883341836048 -0.3496094960090982 L 6.785111102053925 -0.3510500763966737 L 6.7915240082953865 -0.40895211391015035 L 6.794544580075785 -0.40895211391015035 C 6.7918413436908285 -0.4158664851271917 6.788609854085894 -0.42256250445280186 6.78487875037851 -0.4289808283309447 L 6.776374679058314 -0.42953847235193965 L 6.780696420221036 -0.4361372599337323 C 6.774069686774304 -0.44602798367117813 6.766267647628219 -0.4550783490806368 6.757461252679513 -0.4630900542819002 L 6.754301269893865 -0.4628112322714021 C 6.748220604217585 -0.46214036925346946 6.742109380052746 -0.46178362266516665 6.7359919578711445 -0.4617424145644915 C 6.737479008593802 -0.459697719820837 6.739244881326957 -0.45793184708768186 6.740638991379449 -0.45574774133877893 C 6.74516166584969 -0.44804262529553407 6.7490023335906 -0.4399570089988791 6.752117164144964 -0.4315831670955941 C 6.753883036878118 -0.4272614259328723 6.755834790951608 -0.42228910007898646 6.7581583077057585 -0.4171773632198498 L 6.765361209643632 -0.4008198052706178 L 6.692449253898332 -0.40109862728111584 L 6.69546982567873 -0.47270941364408986 L 6.645142452783788 -0.5033798347989006 L 6.4790574751969805 -0.5033798347989006 C 6.397020685173492 -0.5032516521580782 6.3305846544639 -0.4367116526993312 6.330584754606649 -0.3546747625331521 L 6.330584754606649 -0.26935522732067824 L 6.264689819458886 -0.26935522732067824 C 6.086696516695892 -0.26932956507953 5.9424180438080265 -0.12503028779759173 5.94241804565796 0.052963016815331 L 5.94241804565796 0.40911166489180106 L 5.968162611293966 0.40911166489180106 C 5.969417310341206 0.4062305041166513 5.970904361063865 0.4033958136765866 5.972391411786522 0.4007470045768521 C 5.973684566865522 0.3985795533899449 5.974863426881788 0.396345923885438 5.975923157252835 0.39405527632489157 L 5.982893707515291 0.37751183703532953 L 6.009288857842461 0.40590521177107053 L 6.009985912868706 0.40911166489179995 L 6.889529944985527 0.40911166489179995 C 6.959352608070733 0.28746035547095705 7.0582489813460665 0.18501942377342118 7.1773672004899165 0.11095799499897319 C 7.310314062374307 0.02820022938247646 7.463814950785873 -0.015592765842976086 7.6204153751716825 -0.015441316426913598 C 7.777015799557494 -0.015592765842976086 7.93051668796906 0.02820022938247646 8.063463549853449 0.11095799499897441 C 8.120779437328887 0.14664844507530128 8.173619877526416 0.189067446225902 8.22085857477973 0.2373108360897772 C 8.222998333557094 0.23430896678927948 8.224835153175936 0.2311023155902837 8.226342074319527 0.22773794706266914 C 8.228429768656389 0.21914645942937183 8.233957938197397 0.21179118753844695 8.241630179878129 0.20739700559072038 C 8.249302421558859 0.2030028236429925 8.258443833670995 0.20195627328125632 8.266910676847026 0.20450277952114648 L 8.269838307957256 0.2054786565578891 L 8.305062821950207 0.2225797398684508 L 8.279782959665027 0.2572466098404036 L 8.288426441990476 0.2599418892752198 L 8.265191274448952 0.27704297258578026 L 8.26333246104563 0.2764388582297014 L 8.25812778351633 0.2796917816855137 C 8.293133036293918 0.3198604319790762 8.324252406069608 0.3632563931312741 8.351068453682425 0.4092975462321312 L 8.82692468493282 0.4092975462321312 L 8.825809396890827 0.4083681395304689 L 8.831989951456872 0.4051152160746555 L 8.8140988724499 0.36984423174662384 L 8.835800518933684 0.35687900825845376 L 8.851321610851421 0.35660018624795564 C 8.869818976984986 0.35611079920132693 8.887793560325147 0.3627680522902762 8.90150957274111 0.37518832028117444 L 8.917867130690345 0.38601590835552446 L 8.873766782696533 0.40925107589704834 L 9.298180353009998 0.40925107589704834 L 9.298180353009998 0.05310242782057939 C 9.298180353009998 0.04766539861586416 9.29776211999425 0.04236778041639622 9.297390357313585 0.03702369188184551 C 9.296553891282091 0.037348984227427495 9.296042717596178 0.03786015791334085 9.295206251564682 0.03813897992383897 L 9.278662812275119 0.04394777180922016 L 9.27973162998203 0.0264749258179936 C 9.279958205252694 0.012886717495185218 9.283843063643808 -0.00038922419675968545 9.290977451072125 -0.01195604129568606 C 9.260285376797029 -0.16159606482372735 9.128663671201593 -0.2690677111624205 8.975908579209069 -0.269215816315431 L 8.448795568362073 -0.269215816315431 Z M 6.344061151780731 0.23494084900054424 L 6.344061151780731 0.23494084900054424 C 6.341343162700082 0.23529226740504772 6.338685530752338 0.23601139134384963 6.3361611948166106 0.2370784844143643 C 6.3312454794927895 0.23906766243632438 6.326029776635017 0.24021448866709993 6.3207330435690405 0.24047081887542632 C 6.312595024202115 0.24053804727850892 6.305014989454442 0.23634258618561066 6.300750799483332 0.22941087912566227 L 6.26901156062161 0.23456908631987938 L 6.293129664529713 0.2119845034695197 L 6.29141026213164 0.2073374699612146 L 6.299635511441342 0.20598983024380713 L 6.312043090908514 0.194883420158958 L 6.314970722018746 0.20338749147915536 C 6.317784589932623 0.20294780755524666 6.3206268854363055 0.20271483251396127 6.323474793338942 0.20269043645291085 L 6.3264953651193405 0.20269043645291085 C 6.336285462310369 0.203610141254714 6.3454750542139235 0.2078199899520652 6.35256522310093 0.21463331256925422 L 6.376776267679196 0.2366602513986179 Z M 6.630969000583461 -0.02143598965262372 L 6.677811098347171 -0.09783322052915244 L 6.726837301859784 0.0034256396168068637 Z M 6.808485680600698 0.2815505950888405 C 6.8044038907973246 0.2848151494671881 6.799352442506264 0.2866297473969871 6.794126347060036 0.28670880228305884 C 6.786127066036381 0.2860764404728334 6.778698302624871 0.2823203241411726 6.773447047948081 0.27625297688937134 L 6.772006467560506 0.27490533717196497 L 6.768102959413531 0.3092469147983369 L 6.758111837370675 0.29042642908970284 L 6.746819545945495 0.30497164397069554 L 6.749096592364564 0.27346475678439075 L 6.7463083722595805 0.2684459605954208 L 6.749979528731143 0.26286952038545475 L 6.754626562239446 0.22211503651762265 L 6.78562227573984 0.2174680030093189 L 6.816478578234982 0.27583474387362483 Z M 6.936372042749242 0.08358696763506246 C 6.931367202837241 0.09403534283090231 6.9229615829405935 0.10247373317548891 6.912532760851639 0.10751919020283085 L 6.927867971429046 0.13010377305319176 L 6.9098839517519055 0.13303140416342207 C 6.90188171420608 0.1345672705011196 6.893770639250077 0.13546850105178676 6.885626436838556 0.13572668359823947 C 6.876399189488211 0.13643835101310664 6.867381307294172 0.1327311910289406 6.86132245159012 0.12573556155538368 C 6.857333168817306 0.11968309408592215 6.855788662776871 0.11234253849589992 6.857000710427399 0.1051956734486772 C 6.847982729404192 0.10577081459871762 6.839140690289158 0.102514109352149 6.832650254843884 0.09622689877764679 C 6.825168530895512 0.0874904757820365 6.826516170612922 0.075872892011274 6.829211450047737 0.05277713547499974 L 6.831256144791392 0.0354437004890239 L 6.8846040894667295 0.06541706661758884 L 6.945387287755352 0.0669505876753288 Z M 7.123415141458504 -0.09444088606808809 L 7.103944071058707 -0.07799038744868925 L 7.103572308378042 -0.07799038744868925 C 7.087262883829079 -0.06962577882941279 7.068472488560383 -0.06746273684329696 7.050689067053538 -0.07190277355281116 C 7.037282049072693 -0.07533880278638616 7.0231258970725605 -0.0743776831454106 7.010306345866366 -0.06916102378290856 L 6.990556453456072 -0.05814755436822849 L 7.003149914263577 -0.16939753655704243 L 7.020808641595136 -0.1383088823864841 C 7.032147403355399 -0.11832663830077372 7.050317304372868 -0.1150737148449602 7.0713683661654905 -0.11168138038389708 C 7.0811527199415565 -0.11029238710892642 7.090794438875435 -0.10803746897116506 7.100179973916979 -0.10494318179685358 L 7.167004315766398 -0.16210169394900165 L 7.120022806997438 -0.09588146645565998 Z M 8.103056275344208 -0.31875319351395387 C 8.095667296238988 -0.30277408409621154 8.079531634791154 -0.29267334235372644 8.061930028795713 -0.293008627877945 C 8.056578682768636 -0.2931267133285748 8.051239822796571 -0.29357679164017403 8.045944233527145 -0.2943562675953537 L 8.027634921504424 -0.2963544920039254 L 8.036928988521032 -0.38000109515340963 L 8.108028601198095 -0.32790784952531427 Z M 9.206633792896397 0.17476176506800034 C 9.216996677619917 0.17425059138208698 9.225872511620778 0.1739252990365061 9.23354011690948 0.1739252990365061 C 9.249419998146564 0.17146997828278177 9.265574197393935 0.17614619385438846 9.277686935238375 0.1867046411843426 C 9.287863938621562 0.19901927998135083 9.285261599856913 0.21774682501981935 9.28052162567844 0.24284080596466395 L 9.278476930934787 0.25338957202851586 L 9.202358522068756 0.24479256003815286 L 9.194226213429221 0.17536587942408044 Z M 8.57273195202856 -0.05442992756158449 C 8.572853894157852 -0.06686301301218478 8.57989786844518 -0.07819072738773336 8.590994793716195 -0.08379917933406933 C 8.594334098855171 -0.0925048329452679 8.598603102458608 -0.10082471588042885 8.603727665528952 -0.10861433826841593 L 8.617668766053868 -0.129665400061037 L 8.627288125416056 -0.0962067588012433 C 8.627892239772137 -0.09374383104184236 8.62886811680888 -0.09155972529293821 8.629565171835125 -0.08900385686337053 L 8.991801433807472 -0.08900385686337053 C 9.001016038077136 -0.08905327327699608 9.009872192451814 -0.08543693800492846 9.016418432329562 -0.07895171501019582 C 9.02296467220731 -0.07246649201546196 9.026663780984954 -0.06364459055606908 9.026700655454842 -0.05442992756158449 L 9.026700655454842 0.1902828569857381 C 9.026663755412319 0.19950175497935585 9.022966135494288 0.20832840410067321 9.0164212457185 0.21482100447745645 C 9.009876355942708 0.22131360485423734 9.001020331206334 0.22494030495733075 8.991801433807472 0.22490325662260813 L 8.74588042054799 0.22490325662260813 L 8.745043954516497 0.232663802581477 L 8.717626456817499 0.232663802581477 L 8.712375308953115 0.22490325662260813 L 8.607770584681177 0.22490325662260813 C 8.598551687282317 0.22494030495733075 8.589695662545939 0.22131360485423612 8.58315077277015 0.2148210044774541 C 8.576605882994361 0.20832840410067321 8.572908263076329 0.19950175497935463 8.572871363033808 0.1902828569857381 Z M 8.513854037478339 -0.01595249011282096 L 8.49968058527801 0.003332698946642454 L 8.489503581894823 0.0010091821924900213 L 8.449910856404067 -0.018322477202057486 L 8.46961427847928 0.003518580286973716 L 8.462132554530909 0.011325596580926578 C 8.445862467902813 0.02919758481877399 8.422775945002446 0.039330659976213544 8.398607606472385 0.039207797630753105 C 8.385961226295539 0.039016885190618966 8.373420626624608 0.036869307496971926 8.361431338405946 0.032841361724376905 L 8.353206089096249 0.030192552624643598 L 8.354739610153988 -0.07390099796138161 C 8.337220293827679 -0.08040684487300742 8.335175599084026 -0.1057331774932685 8.334478544057779 -0.11488783350462894 L 8.33294502300004 -0.1341265522290095 L 8.4174745625161 -0.09764733918881752 L 8.398189373456637 -0.08598328508297337 C 8.394564687320159 -0.08379917933406933 8.39121882319418 -0.08217271760616374 8.387780018398034 -0.08036037453792344 L 8.418450439552846 -0.08361329799373696 L 8.456184351640278 -0.1490900001257488 L 8.531791586820397 -0.1010861439849623 L 8.489968285245656 -0.049968775393612 Z" fill="#000000" transform="matrix(1,0,0,1,0,0)" fill-rule="nonzero"></path></g><g clip-path="url(#SvgjsClipPath1000ac158792-80d2-4da0-8f17-c4799cf10b38)"><path d=" M 6.696585113720722 -0.49692045822235753 C 6.684642914625206 -0.5004723500496919 6.672282594165403 -0.5024256244586378 6.659827078670036 -0.5027292501077376 L 6.696445702715475 -0.49343518309112877 Z" fill="#000000" transform="matrix(1,0,0,1,0,0)" fill-rule="nonzero"></path></g><g clip-path="url(#SvgjsClipPath1000ac158792-80d2-4da0-8f17-c4799cf10b38)"><path d=" M 6.984097076879531 0.7278516932264195 C 6.9741552379371194 0.7372984367603982 6.961455793710326 0.7433225320987492 6.947850215514754 0.7450457172071469 C 6.9436374662613805 0.7449493339720027 6.939472355835763 0.7441320292847103 6.935535576717749 0.7426292597828287 C 6.931770878863812 0.770590311442965 6.929768701358211 0.7987604833240848 6.929540903492036 0.8269729179585575 C 6.929566567129597 1.2085655345094994 7.238915698430238 1.5178938608369248 7.620508315843011 1.5178938599732938 C 8.00210093325463 1.5178938608362857 8.311450064554752 1.2085655345083408 8.311475728191676 0.8269729179585575 C 8.311571195316816 0.7355009970479703 8.293418873636526 0.6449289690295522 8.25808131318128 0.5605584869275165 C 8.235283660744821 0.506581930563525 8.20569086073746 0.4557354098120935 8.17002002819888 0.4092510758970519 C 8.039740465445131 0.23715477957824938 7.836355251174586 0.1360383588850972 7.620508315841853 0.13605197594382035 C 7.404653253114255 0.13604937567674413 7.201266516587992 0.23718375290925464 7.0709966034848275 0.40929754623213366 C 7.035244460742163 0.45576918861462634 7.005573256414853 0.5066162629776397 6.982702966827038 0.5606049572625339 C 6.970840723531507 0.5896186844220449 6.9610420933461405 0.619433850754698 6.953380185389639 0.6498280006219842 L 6.979961217057141 0.639604526903712 L 7.093999419350938 0.6891883744373236 L 7.048969664655465 0.693370704594798 C 7.005519901352816 0.6974136237470218 6.981587678785047 0.6995977294959258 6.9653230615059805 0.6995977294959258 C 6.957469035335115 0.6997864371993295 6.949632617266349 0.6987677028503906 6.942087893964457 0.6965771577155274 C 6.9418090719539585 0.6986683227942635 6.941437309273293 0.700713017537918 6.941158487262796 0.7028041826166552 L 7.007704007101719 0.710332376900109 Z M 7.790682682915969 0.4257945151866164 L 7.781388615899362 0.39326528062848476 L 7.839244183077755 0.37765124804058037 L 7.849142364450443 0.41018048259871176 Z M 7.763636947897638 0.26779537590425784 L 7.787847992475905 0.26049953329621944 C 7.799596007355865 0.2587380309393862 7.81143353431464 0.2576365048396838 7.823304858144268 0.25720013950532195 C 7.852581169246587 0.25720013950532317 7.8579717281162225 0.2733253457791399 7.868706375520405 0.30543634732152614 L 7.873121057353295 0.31849451147986174 L 7.726739501841699 0.340986153660057 Z M 7.60642780431169 0.6275687101172039 L 7.641745258974806 0.7120053089630997 L 7.6324511919581965 0.7101929658948617 L 7.663307494453338 0.7307793243366522 L 7.648762279572345 0.740445154033926 C 7.645834648462115 0.7423969081074134 7.643325250367629 0.7443486621809011 7.641094674283645 0.7461145349140575 C 7.636277973308733 0.7509103857030689 7.629963846758325 0.7539116458556009 7.62320359527667 0.7546186062342549 L 7.621437722543513 0.7546186062342549 C 7.6098048248351144 0.7527403358002714 7.600311072125659 0.7442974183143808 7.597087266959999 0.7329634300855551 C 7.5967578701979726 0.7254788630361279 7.599454337660667 0.7181766281682082 7.604568990908368 0.7127023639893467 C 7.6056085349061595 0.7113322477451814 7.606570431757972 0.709904916932815 7.607450151683519 0.7084270931617042 L 7.6090301430763425 0.7056853433918063 L 7.543971673960077 0.6931848232544656 Z M 7.0545925752005125 0.6351433747357406 L 7.024386857396533 0.6131629062414597 L 7.035214445470881 0.5979206363342199 L 7.0296380052609155 0.6004765047637878 C 7.025418491254008 0.6030947839090269 7.020643483428672 0.6046864531841386 7.015696904736003 0.6051235382720904 L 7.011049871227698 0.6045194239160127 C 7.005160301901066 0.6024288156824881 6.999997632833851 0.5986858806087575 6.996179364001122 0.5937383061767442 C 6.995110546294214 0.5925765477996693 6.9940881989223875 0.5914147894225928 6.993019381215476 0.5904389123858492 L 6.982470615151625 0.5807730826885754 L 6.994088198922385 0.5724548927087104 C 6.995017605624046 0.5717578376824658 6.995947012325707 0.5709213716509706 6.996876419027368 0.5700849056194751 C 7.001029701968953 0.5655124239147059 7.0067548430761555 0.5626747452789634 7.012908684631018 0.5621384783202749 C 7.0194645679269305 0.562824765472928 7.025584818479752 0.5657454212327201 7.030242119616996 0.5704101979650583 C 7.032565636371148 0.5722225410332952 7.035400326811213 0.574499587452365 7.039071483282773 0.5770089855468498 L 7.046553207231145 0.5822136630761509 L 7.056404918268749 0.5682725625512358 L 7.087632983444558 0.5909965564068466 Z" fill="#000000" transform="matrix(1,0,0,1,0,0)" fill-rule="nonzero"></path></g></g><g><path d=" M 0.258 0.8055 C 0.28500000000000003 0.7065 0.3525 0.44699999999999995 0.3525 0.366 C 0.3525 0.351 0.34800000000000003 0.3405 0.3405 0.32999999999999996 C 0.3585 0.3255 0.3825 0.32399999999999995 0.40800000000000003 0.32399999999999995 C 0.4335 0.32399999999999995 0.459 0.3255 0.47700000000000004 0.3255 C 0.498 0.3255 0.522 0.3315 0.5415 0.3315 C 0.552 0.3315 0.585 0.3225 0.585 0.3135 C 0.585 0.258 0.4305 0.25350000000000006 0.393 0.25350000000000006 C 0.315 0.25350000000000006 0.1605 0.26549999999999996 0.096 0.3015 C 0.0825 0.3075 0.0735 0.33299999999999996 0.0735 0.34650000000000003 C 0.0735 0.36750000000000005 0.09 0.37050000000000005 0.111 0.37050000000000005 C 0.12 0.37050000000000005 0.20400000000000001 0.3405 0.28500000000000003 0.3375 C 0.28200000000000003 0.3435 0.2775 0.34650000000000003 0.2715 0.34950000000000003 C 0.28500000000000003 0.405 0.123 0.87 0.123 1.041 C 0.123 1.0575 0.132 1.071 0.1275 1.0875 C 0.12 1.0935000000000001 -0.009000000000000001 1.0965 -0.036000000000000004 1.116 C -0.042 1.125 -0.043500000000000004 1.1355 -0.043500000000000004 1.143 C -0.043500000000000004 1.176 -0.0165 1.1865 0.015 1.1865 C 0.036000000000000004 1.1865 0.063 1.176 0.084 1.1745 C 0.171 1.17 0.198 1.161 0.28200000000000003 1.161 C 0.3045 1.161 0.324 1.1685 0.34800000000000003 1.1685 C 0.363 1.1685 0.387 1.1565 0.387 1.149 C 0.387 1.098 0.252 1.0875 0.2145 1.0875 C 0.20550000000000002 1.0875 0.198 1.0875 0.198 1.0845 C 0.198 1.059 0.2145 0.987 0.222 0.96 C 0.234 0.909 0.246 0.855 0.258 0.8055 M 0.806989013671875 0.789 C 0.817489013671875 0.7515000000000001 0.832489013671875 0.72 0.832489013671875 0.6825 C 0.832489013671875 0.6495 0.791989013671875 0.6435 0.7664890136718749 0.6435 C 0.761989013671875 0.6435 0.757489013671875 0.6465 0.7544890136718749 0.6495 L 0.757489013671875 0.657 C 0.743989013671875 0.6825 0.724489013671875 0.708 0.707989013671875 0.7290000000000001 C 0.688489013671875 0.702 0.6584890136718751 0.6990000000000001 0.626989013671875 0.6990000000000001 C 0.5234890136718751 0.6990000000000001 0.401989013671875 0.9405 0.409489013671875 1.0350000000000001 C 0.412489013671875 1.0875 0.431989013671875 1.131 0.491989013671875 1.131 C 0.547489013671875 1.131 0.661489013671875 0.9315 0.698989013671875 0.8714999999999999 L 0.700489013671875 0.8714999999999999 C 0.685489013671875 0.9255 0.673489013671875 0.9855 0.673489013671875 1.041 C 0.673489013671875 1.0905 0.682489013671875 1.1520000000000001 0.733489013671875 1.1715 C 0.736489013671875 1.1745 0.739489013671875 1.1745 0.745489013671875 1.1775 C 0.752989013671875 1.1805 0.755989013671875 1.1805 0.7664890136718749 1.1805 C 0.841489013671875 1.1805 0.970489013671875 0.972 0.997489013671875 0.909 C 1.0004890136718751 0.9075 1.018489013671875 0.8625 1.0169890136718749 0.855 L 1.0169890136718749 0.8505 L 1.0124890136718752 0.8460000000000001 L 1.013989013671875 0.8385 C 1.006489013671875 0.8415 1.0169890136718749 0.825 1.0124890136718752 0.8205 C 1.009489013671875 0.8175 1.013989013671875 0.798 1.009489013671875 0.7935000000000001 L 0.950989013671875 0.8865000000000001 C 0.914989013671875 0.9405 0.800989013671875 1.1205 0.7604890136718749 1.1205 C 0.755989013671875 1.1205 0.751489013671875 1.086 0.751489013671875 1.08 C 0.751489013671875 0.9795 0.778489013671875 0.8835 0.806989013671875 0.789 M 0.482989013671875 1.071 L 0.481489013671875 1.0605 C 0.481489013671875 0.978 0.556489013671875 0.8325 0.617989013671875 0.774 C 0.622489013671875 0.7695000000000001 0.635989013671875 0.7605 0.644989013671875 0.7605 C 0.655489013671875 0.7605 0.665989013671875 0.774 0.670489013671875 0.7815000000000001 C 0.611989013671875 0.8685 0.541489013671875 0.9825 0.482989013671875 1.071 M 1.42047216796875 0.8355 C 1.41447216796875 0.8415 1.38597216796875 0.8835 1.37847216796875 0.8985000000000001 C 1.3244721679687501 0.99 1.25097216796875 1.1025 1.21497216796875 1.1115 L 1.21347216796875 1.1115 C 1.18797216796875 1.0275 1.26147216796875 0.861 1.24347216796875 0.798 C 1.24197216796875 0.792 1.24197216796875 0.7845 1.24047216796875 0.7815000000000001 C 1.23297216796875 0.7635000000000001 1.20147216796875 0.747 1.17447216796875 0.744 C 1.13547216796875 0.7455 1.05597216796875 0.8520000000000001 1.04247216796875 0.8685 L 1.04397216796875 0.8625 C 1.05447216796875 0.8280000000000001 1.07997216796875 0.7290000000000001 1.03497216796875 0.7155 C 1.01997216796875 0.7095 1.00347216796875 0.7095 0.99447216796875 0.708 L 0.99297216796875 0.7170000000000001 C 0.99297216796875 0.7185 0.99297216796875 0.7245 0.99297216796875 0.726 C 0.99747216796875 0.7815000000000001 0.89997216796875 1.0125 0.90447216796875 1.1145 C 0.90447216796875 1.125 0.90747216796875 1.1295 0.91047216796875 1.1385 L 0.91347216796875 1.1400000000000001 C 0.91947216796875 1.143 0.91947216796875 1.149 0.92547216796875 1.1535 C 0.93147216796875 1.1535 0.93597216796875 1.158 0.94347216796875 1.1625 L 0.94497216796875 1.1595 C 0.94947216796875 1.161 0.94647216796875 1.1625 0.95247216796875 1.1655 C 0.95697216796875 1.1655 0.95697216796875 1.164 0.95847216796875 1.164 C 0.95847216796875 1.164 0.95997216796875 1.164 0.96297216796875 1.1655 C 0.96447216796875 1.1625 0.96747216796875 1.161 0.97197216796875 1.161 C 0.97497216796875 1.1565 0.97947216796875 1.143 0.98397216796875 1.1265 C 1.02147216796875 1.014 1.09197216796875 0.9135 1.16397216796875 0.819 C 1.16397216796875 0.819 1.16847216796875 0.8115 1.16847216796875 0.819 C 1.16997216796875 0.8595 1.12347216796875 0.9855 1.12647216796875 1.0605 C 1.12797216796875 1.1205 1.15947216796875 1.161 1.21647216796875 1.161 C 1.3184721679687499 1.1400000000000001 1.38447216796875 0.9975 1.42647216796875 0.915 C 1.43097216796875 0.8985000000000001 1.42347216796875 0.8835 1.42947216796875 0.8685 C 1.42947216796875 0.861 1.43097216796875 0.855 1.42347216796875 0.8520000000000001 C 1.42497216796875 0.8445 1.42497216796875 0.837 1.42047216796875 0.8355 M 1.5164604492187501 0.16949999999999998 C 1.51046044921875 0.15749999999999997 1.50296044921875 0.14250000000000007 1.50296044921875 0.135 C 1.50296044921875 0.1319999999999999 1.50296044921875 0.13050000000000006 1.50746044921875 0.1259999999999999 C 1.49846044921875 0.10349999999999993 1.47446044921875 0 1.43246044921875 0 C 1.42196044921875 0 1.39346044921875 0.008999999999999897 1.39346044921875 0.022499999999999964 C 1.39346044921875 0.050999999999999934 1.44746044921875 0.13650000000000007 1.46696044921875 0.1665000000000001 C 1.47596044921875 0.1785000000000001 1.48346044921875 0.1845000000000001 1.49096044921875 0.1935 C 1.49396044921875 0.1904999999999999 1.49546044921875 0.18599999999999994 1.49546044921875 0.18599999999999994 C 1.49546044921875 0.1785000000000001 1.50746044921875 0.17100000000000004 1.51346044921875 0.16949999999999998 M 1.4939443359375 1.125 C 1.4939443359375 1.1520000000000001 1.5389443359375 1.1895 1.5644443359375 1.1895 C 1.6274443359375 1.1895 1.7099443359375 1.1385 1.7099443359375 1.0695000000000001 C 1.7099443359375 0.9825 1.6139443359375 0.8955 1.6139443359375 0.8235 C 1.6139443359375 0.7785 1.6859443359375 0.708 1.7309443359375 0.708 C 1.7504443359375 0.7170000000000001 1.7429443359375 0.726 1.7399443359375 0.7484999999999999 C 1.7369443359375 0.7575000000000001 1.7324443359375 0.78 1.7339443359375 0.7875000000000001 C 1.7429443359375 0.7905 1.7444443359375 0.7965 1.7579443359375 0.7965 C 1.7789443359375001 0.7965 1.7999443359375 0.726 1.8089443359375 0.7095 L 1.8089443359375 0.7065 C 1.8089443359375 0.6885 1.7339443359375 0.6435 1.7159443359375 0.6435 C 1.6289443359375 0.6435 1.5329443359375 0.7364999999999999 1.5329443359375 0.8235 C 1.5329443359375 0.918 1.6334443359375 1.0230000000000001 1.6334443359375 1.071 C 1.6334443359375 1.1025 1.5809443359375 1.131 1.5524443359375 1.131 L 1.5509443359375 1.125 L 1.5809443359375 1.077 L 1.5779443359375 1.071 L 1.5689443359375 1.08 C 1.5704443359375 1.077 1.5734443359375 1.068 1.5779443359375 1.0665 L 1.5734443359375 1.062 L 1.5689443359375 1.0695000000000001 C 1.5644443359375 1.068 1.5659443359375 1.068 1.5644443359375 1.0635000000000001 L 1.5449443359375 1.0815000000000001 L 1.5449443359375 1.08 L 1.5539443359375 1.068 L 1.5479443359375 1.0665 C 1.5419443359375 1.068 1.4939443359375 1.098 1.4939443359375 1.125 M 2.50644140625 0.24450000000000005 C 2.41794140625 0.24450000000000005 2.33544140625 0.25649999999999995 2.24844140625 0.27149999999999996 C 2.21094140625 0.28049999999999997 1.99644140625 0.348 1.98744140625 0.34650000000000003 C 1.97844140625 0.34650000000000003 1.99644140625 0.3315 1.98744140625 0.3315 C 1.98444140625 0.32999999999999996 1.95444140625 0.34650000000000003 1.95444140625 0.34950000000000003 C 1.93644140625 0.36450000000000005 1.95144140625 0.38549999999999995 1.94994140625 0.4065 C 1.94994140625 0.4215 1.98144140625 0.4245 1.99044140625 0.4275 C 2.03694140625 0.4275 2.10744140625 0.405 2.15244140625 0.38849999999999996 L 2.15544140625 0.38849999999999996 C 2.12994140625 0.5025000000000001 2.09094140625 0.591 2.05644140625 0.702 L 2.05344140625 0.7065 C 2.03094140625 0.7125 2.00094140625 0.7170000000000001 1.97694140625 0.7305 C 1.96944140625 0.735 1.97694140625 0.7545 1.97544140625 0.7635000000000001 C 1.97544140625 0.7845 1.98744140625 0.7965 2.00844140625 0.798 C 2.01144140625 0.798 2.01444140625 0.798 2.01744140625 0.798 C 2.02044140625 0.798 2.02344140625 0.798 2.02644140625 0.7965 C 2.01444140625 0.8595 1.98294140625 0.9690000000000001 1.97844140625 1.0350000000000001 C 1.97694140625 1.0815000000000001 1.98444140625 1.179 2.04744140625 1.1925000000000001 C 2.04744140625 1.1865 2.04144140625 1.185 2.04144140625 1.179 C 2.04144140625 1.1775 2.04144140625 1.176 2.04444140625 1.1745 C 2.04144140625 1.167 2.05794140625 1.1625 2.06394140625 1.1595 C 2.05794140625 1.1475 2.05944140625 1.0995 2.05944140625 1.086 C 2.06244140625 1.05 2.11794140625 0.783 2.13444140625 0.7755000000000001 C 2.19744140625 0.7484999999999999 2.34294140625 0.726 2.41944140625 0.726 L 2.42544140625 0.726 C 2.43294140625 0.726 2.43594140625 0.7335 2.44344140625 0.735 L 2.45094140625 0.726 C 2.44194140625 0.6795 2.39244140625 0.666 2.35494140625 0.666 C 2.33994140625 0.6645 2.32644140625 0.6645 2.31444140625 0.6645 C 2.25444140625 0.6645 2.20944140625 0.6735 2.15544140625 0.6855 C 2.15544140625 0.6585 2.24244140625 0.4335 2.24394140625 0.37050000000000005 L 2.24844140625 0.366 C 2.33544140625 0.3405 2.42094140625 0.32399999999999995 2.51244140625 0.32399999999999995 C 2.5484414062500003 0.3255 2.71344140625 0.3375 2.7119414062500002 0.39449999999999996 C 2.71044140625 0.4065 2.6894414062500003 0.43800000000000006 2.68344140625 0.4515 L 2.69544140625 0.44999999999999996 C 2.71344140625 0.43200000000000005 2.75094140625 0.44699999999999995 2.75544140625 0.38249999999999995 C 2.75544140625 0.36450000000000005 2.74794140625 0.34950000000000003 2.73744140625 0.3375 C 2.68494140625 0.26249999999999996 2.58894140625 0.25050000000000006 2.50644140625 0.24450000000000005 M 2.564935546875 0.7424999999999999 C 2.573935546875 0.7275 2.579935546875 0.7335 2.585935546875 0.711 C 2.573935546875 0.6885 2.561935546875 0.684 2.539435546875 0.684 C 2.534935546875 0.684 2.531935546875 0.684 2.527435546875 0.684 L 2.509435546875 0.6855 L 2.501935546875 0.6930000000000001 C 2.488435546875 0.735 2.351935546875 0.9405 2.357935546875 1.077 C 2.363935546875 1.131 2.393935546875 1.1595 2.447935546875 1.1595 C 2.500435546875 1.158 2.554435546875 1.08 2.572435546875 1.0365 C 2.5904355468749998 0.99 2.617435546875 0.8955 2.615935546875 0.8445 C 2.612935546875 0.8175 2.608435546875 0.789 2.591935546875 0.765 C 2.585935546875 0.753 2.578435546875 0.7515000000000001 2.564935546875 0.7424999999999999 M 2.434435546875 1.113 C 2.434435546875 1.107 2.434435546875 1.1025 2.432935546875 1.098 C 2.429935546875 1.0695000000000001 2.450935546875 0.9885 2.471935546875 0.9285 C 2.477935546875 0.9195 2.501935546875 0.8505 2.533435546875 0.7995 C 2.536435546875 0.8069999999999999 2.540935546875 0.8115 2.540935546875 0.819 C 2.545435546875 0.891 2.497435546875 1.0485 2.444935546875 1.104 C 2.443435546875 1.1085 2.438935546875 1.113 2.434435546875 1.113 M 2.563467041015625 0.5730000000000001 C 2.644467041015625 0.5730000000000001 2.725467041015625 0.561 2.804967041015625 0.5505 C 2.741967041015625 0.7305 2.672967041015625 0.9165000000000001 2.660967041015625 1.0545 C 2.660967041015625 1.0605 2.662467041015625 1.0875 2.660967041015625 1.089 C 2.657967041015625 1.1085 2.666967041015625 1.1340000000000001 2.672967041015625 1.1535 C 2.692467041015625 1.1745 2.707467041015625 1.203 2.738967041015625 1.203 C 2.768967041015625 1.203 2.791467041015625 1.1835 2.815467041015625 1.176 L 2.818467041015625 1.17 C 2.824467041015625 1.1685 2.827467041015625 1.1655 2.831967041015625 1.158 C 2.8664670410156248 1.1235 2.939967041015625 1.0365 2.959467041015625 1.0005 L 2.959467041015625 0.9945 L 2.954967041015625 1.0035 C 2.954967041015625 0.999 2.957967041015625 0.9945 2.959467041015625 0.99 L 2.9489670410156252 1.0005 C 2.951967041015625 0.9945 2.957967041015625 0.99 2.959467041015625 0.9855 L 2.9489670410156252 0.999 C 2.954967041015625 0.9825 2.969967041015625 0.9645 2.9729670410156253 0.9510000000000001 L 2.981967041015625 0.9375 C 2.990967041015625 0.9105000000000001 2.999967041015625 0.9195 3.011967041015625 0.8925000000000001 L 3.005967041015625 0.8925000000000001 C 3.004467041015625 0.8895 2.995467041015625 0.8685 2.995467041015625 0.864 L 2.998467041015625 0.861 L 2.995467041015625 0.8520000000000001 L 2.990967041015625 0.8475 C 2.923467041015625 0.9525 2.815467041015625 1.098 2.759967041015625 1.149 L 2.744967041015625 1.1505 L 2.741967041015625 1.1475 C 2.738967041015625 1.1385 2.737467041015625 1.1265 2.737467041015625 1.1175 C 2.737467041015625 1.107 2.738967041015625 1.0935000000000001 2.738967041015625 1.0815000000000001 C 2.743467041015625 1.0335 2.759967041015625 0.9195 2.791467041015625 0.8520000000000001 C 2.816967041015625 0.7965 2.872467041015625 0.648 2.899467041015625 0.5415 C 2.930967041015625 0.54 2.959467041015625 0.54 2.986467041015625 0.54 C 3.041967041015625 0.54 3.079467041015625 0.5505 3.077967041015625 0.558 L 3.079467041015625 0.558 C 3.100467041015625 0.501 3.023967041015625 0.48750000000000004 2.939967041015625 0.48750000000000004 C 2.930967041015625 0.48750000000000004 2.921967041015625 0.48750000000000004 2.912967041015625 0.48750000000000004 C 2.914467041015625 0.474 2.914467041015625 0.4605 2.914467041015625 0.44999999999999996 C 2.914467041015625 0.44100000000000006 2.912967041015625 0.4305 2.909967041015625 0.4215 L 2.899467041015625 0.4095 C 2.893467041015625 0.40800000000000003 2.890467041015625 0.4065 2.885967041015625 0.4065 C 2.884467041015625 0.4065 2.882967041015625 0.4065 2.881467041015625 0.4065 C 2.8784670410156252 0.4065 2.8664670410156248 0.405 2.858967041015625 0.405 C 2.857467041015625 0.405 2.855967041015625 0.405 2.854467041015625 0.405 C 2.845467041015625 0.4335 2.834967041015625 0.46499999999999997 2.824467041015625 0.49350000000000005 C 2.795967041015625 0.49650000000000005 2.770467041015625 0.501 2.755467041015625 0.5025000000000001 C 2.690967041015625 0.51 2.605467041015625 0.519 2.536467041015625 0.519 C 2.497467041015625 0.519 2.464467041015625 0.516 2.444967041015625 0.5085000000000001 C 2.435967041015625 0.504 2.435967041015625 0.5085000000000001 2.428467041015625 0.49650000000000005 C 2.428467041015625 0.49650000000000005 2.429967041015625 0.49050000000000005 2.426967041015625 0.49050000000000005 C 2.426967041015625 0.49050000000000005 2.425467041015625 0.492 2.423967041015625 0.49350000000000005 L 2.423967041015625 0.49650000000000005 C 2.398467041015625 0.5715 2.521467041015625 0.5730000000000001 2.558967041015625 0.5730000000000001 C 2.560467041015625 0.5730000000000001 2.561967041015625 0.5730000000000001 2.563467041015625 0.5730000000000001 M 2.935469970703125 0.9 C 2.915969970703125 0.96 2.902469970703125 1.017 2.899469970703125 1.0725 C 2.897969970703125 1.1115 2.908469970703125 1.1505 2.959469970703125 1.1625 C 2.968469970703125 1.1655 2.972969970703125 1.1685 2.981969970703125 1.1685 C 2.983469970703125 1.1685 2.984969970703125 1.1685 2.986469970703125 1.1685 C 3.097469970703125 1.149 3.175469970703125 0.9495 3.169469970703125 0.8385 C 3.169469970703125 0.7935000000000001 3.133469970703125 0.753 3.094469970703125 0.7395 C 3.112469970703125 0.7125 3.118469970703125 0.702 3.146969970703125 0.6795 L 3.146969970703125 0.6735 C 3.1319699707031248 0.66 3.118469970703125 0.657 3.106469970703125 0.657 C 3.100469970703125 0.657 3.095969970703125 0.6585 3.091469970703125 0.6585 C 3.043469970703125 0.663 2.957969970703125 0.8355 2.935469970703125 0.9 M 2.980469970703125 1.116 C 2.971469970703125 1.0845 2.987969970703125 1.008 3.011969970703125 0.9345 C 3.029969970703125 0.8714999999999999 3.052469970703125 0.8115 3.070469970703125 0.7905 L 3.070469970703125 0.7875000000000001 C 3.094469970703125 0.8055 3.094469970703125 0.8265 3.094469970703125 0.8535 C 3.095969970703125 0.8775 3.088469970703125 0.9105000000000001 3.076469970703125 0.9495 C 3.055469970703125 1.0155 3.016469970703125 1.089 2.980469970703125 1.116 M 3.598487548828125 0.6735 C 3.589487548828125 0.6735 3.574487548828125 0.666 3.571487548828125 0.666 C 3.545987548828125 0.666 3.506987548828125 0.726 3.485987548828125 0.744 C 3.463487548828125 0.7275 3.439487548828125 0.7155 3.410987548828125 0.7155 C 3.308987548828125 0.7155 3.173987548828125 0.897 3.173987548828125 1.0155 C 3.173987548828125 1.062 3.214487548828125 1.107 3.268487548828125 1.107 C 3.331487548828125 1.107 3.448487548828125 0.9225000000000001 3.484487548828125 0.8745 C 3.517487548828125 0.8340000000000001 3.538487548828125 0.7965 3.569987548828125 0.756 L 3.569987548828125 0.762 C 3.569987548828125 0.7845 3.562487548828125 0.9285 3.548987548828125 0.9510000000000001 C 3.419987548828125 1.0425 3.272987548828125 1.248 3.227987548828125 1.3995 L 3.223487548828125 1.404 C 3.221987548828125 1.4115 3.218987548828125 1.4175 3.218987548828125 1.4235 L 3.211487548828125 1.4295 C 3.211487548828125 1.4355 3.212987548828125 1.4415 3.215987548828125 1.4445000000000001 C 3.218987548828125 1.446 3.220487548828125 1.449 3.218987548828125 1.4505000000000001 C 3.221987548828125 1.464 3.259487548828125 1.476 3.266987548828125 1.4865 L 3.268487548828125 1.4865 C 3.281987548828125 1.4985 3.295487548828125 1.5030000000000001 3.308987548828125 1.5030000000000001 C 3.323987548828125 1.5030000000000001 3.355487548828125 1.4865 3.365987548828125 1.482 C 3.499487548828125 1.413 3.598487548828125 1.1685 3.616487548828125 1.032 L 3.628487548828125 0.9705 C 3.680987548828125 0.9345 3.743987548828125 0.8955 3.791987548828125 0.8685 L 3.796487548828125 0.8595 C 3.8009875488281253 0.8565 3.805487548828125 0.8535 3.8099875488281247 0.8520000000000001 C 3.803987548828125 0.8520000000000001 3.797987548828125 0.8535 3.790487548828125 0.8535 L 3.791987548828125 0.8505 L 3.808487548828125 0.843 C 3.803987548828125 0.8415 3.7994875488281252 0.8415 3.796487548828125 0.8385 L 3.803987548828125 0.837 C 3.796487548828125 0.8355 3.788987548828125 0.8265 3.779987548828125 0.8265 C 3.779987548828125 0.8265 3.778487548828125 0.8265 3.7769875488281253 0.8265 C 3.713987548828125 0.8445 3.679487548828125 0.873 3.6359875488281252 0.891 L 3.6359875488281252 0.888 C 3.6359875488281252 0.861 3.638987548828125 0.8340000000000001 3.638987548828125 0.8069999999999999 C 3.638987548828125 0.7935000000000001 3.6359875488281252 0.7065 3.628487548828125 0.6915 C 3.623987548828125 0.6795 3.617987548828125 0.6795 3.602987548828125 0.672 M 3.250487548828125 1.053 C 3.250487548828125 1.0095 3.254987548828125 0.9885 3.269987548828125 0.9465 C 3.305987548828125 0.876 3.373487548828125 0.7845 3.427487548828125 0.7845 C 3.434987548828125 0.7845 3.442487548828125 0.786 3.449987548828125 0.7905 C 3.437987548828125 0.8160000000000001 3.278987548828125 1.0365 3.250487548828125 1.053 M 3.536987548828125 1.053 C 3.536987548828125 1.053 3.515987548828125 1.1265 3.511487548828125 1.131 C 3.482987548828125 1.2105000000000001 3.409487548828125 1.3575 3.338987548828125 1.404 L 3.337487548828125 1.401 C 3.337487548828125 1.404 3.332987548828125 1.4055 3.329987548828125 1.4055 C 3.328487548828125 1.4145 3.317987548828125 1.419 3.305987548828125 1.422 L 3.304487548828125 1.422 C 3.304487548828125 1.3245 3.455987548828125 1.125 3.524987548828125 1.059 C 3.527987548828125 1.0545 3.533987548828125 1.0515 3.536987548828125 1.0485 M 3.834021240234375 1.086 C 3.873021240234375 0.9705 3.931521240234375 0.8415 4.038021240234375 0.771 C 4.048521240234375 0.7635000000000001 4.066521240234375 0.7545 4.075521240234375 0.7545 C 4.078521240234375 0.7545 4.0935212402343755 0.783 4.098021240234375 0.7905 L 4.098021240234375 0.7875000000000001 C 4.098021240234375 0.7875000000000001 4.102521240234375 0.7635000000000001 4.102521240234375 0.762 L 4.102521240234375 0.756 C 4.098021240234375 0.7515000000000001 4.104021240234375 0.744 4.101021240234375 0.7364999999999999 C 4.102521240234375 0.7335 4.096521240234375 0.72 4.0935212402343755 0.7155 L 4.084521240234375 0.7095 L 4.075521240234375 0.7095 C 4.068021240234375 0.708 4.062021240234375 0.7065 4.057521240234375 0.7065 C 3.961521240234375 0.7065 3.870021240234375 0.8535 3.826521240234375 0.9345 C 3.843021240234375 0.8714999999999999 3.895521240234375 0.7290000000000001 3.895521240234375 0.6795 C 3.895521240234375 0.6675 3.877521240234375 0.6525 3.852021240234375 0.6495 C 3.849021240234375 0.6495 3.846021240234375 0.648 3.844521240234375 0.648 C 3.840021240234375 0.648 3.837021240234375 0.6495 3.832521240234375 0.6525 L 3.814521240234375 0.708 C 3.777021240234375 0.819 3.711021240234375 0.996 3.711021240234375 1.1115 C 3.711021240234375 1.1655 3.714021240234375 1.17 3.756021240234375 1.2015 C 3.762021240234375 1.2015 3.763521240234375 1.206 3.763521240234375 1.206 L 3.769521240234375 1.2045000000000001 L 3.772521240234375 1.206 C 3.783021240234375 1.2045000000000001 3.792021240234375 1.1925000000000001 3.796521240234375 1.1865 C 3.817521240234375 1.1565 3.822021240234375 1.1205 3.834021240234375 1.086 M 4.441541015625 0.789 C 4.452041015625 0.7515000000000001 4.467041015625 0.72 4.467041015625 0.6825 C 4.467041015625 0.6495 4.426541015625 0.6435 4.401041015625 0.6435 C 4.396541015625 0.6435 4.392041015625 0.6465 4.389041015625 0.6495 L 4.392041015625 0.657 C 4.378541015625 0.6825 4.359041015625 0.708 4.342541015625 0.7290000000000001 C 4.323041015625 0.702 4.293041015625 0.6990000000000001 4.261541015625 0.6990000000000001 C 4.158041015625 0.6990000000000001 4.036541015625 0.9405 4.044041015625 1.0350000000000001 C 4.047041015625 1.0875 4.066541015625 1.131 4.126541015625 1.131 C 4.182041015625 1.131 4.296041015625 0.9315 4.333541015625 0.8714999999999999 L 4.335041015625 0.8714999999999999 C 4.320041015625 0.9255 4.308041015625 0.9855 4.308041015625 1.041 C 4.308041015625 1.0905 4.317041015625 1.1520000000000001 4.368041015625 1.1715 C 4.371041015625 1.1745 4.374041015625 1.1745 4.380041015625 1.1775 C 4.387541015625 1.1805 4.390541015625 1.1805 4.401041015625 1.1805 C 4.476041015625 1.1805 4.605041015625 0.972 4.632041015625 0.909 C 4.635041015625 0.9075 4.653041015625 0.8625 4.651541015625 0.855 L 4.651541015625 0.8505 L 4.647041015625 0.8460000000000001 L 4.648541015625 0.8385 C 4.641041015625 0.8415 4.651541015625 0.825 4.647041015625 0.8205 C 4.644041015625 0.8175 4.648541015625 0.798 4.644041015625 0.7935000000000001 L 4.585541015625 0.8865000000000001 C 4.549541015625 0.9405 4.435541015625 1.1205 4.395041015625 1.1205 C 4.390541015625 1.1205 4.386041015625 1.086 4.386041015625 1.08 C 4.386041015625 0.9795 4.413041015625 0.8835 4.441541015625 0.789 M 4.117541015625 1.071 L 4.116041015625 1.0605 C 4.116041015625 0.978 4.191041015625 0.8325 4.252541015625 0.774 C 4.257041015625 0.7695000000000001 4.270541015625 0.7605 4.279541015625 0.7605 C 4.290041015625 0.7605 4.300541015625 0.774 4.305041015625 0.7815000000000001 C 4.246541015625 0.8685 4.176041015625 0.9825 4.117541015625 1.071 M 4.719024169921875 0.8145 C 4.716024169921875 0.8085 4.708524169921875 0.8055 4.708524169921875 0.798 C 4.704024169921875 0.7605 4.903524169921875 0.25949999999999995 4.933524169921875 0.22650000000000003 C 4.941024169921875 0.29400000000000004 4.836024169921875 0.5415 4.812024169921875 0.6105 C 4.804524169921875 0.627 4.797024169921875 0.6525 4.788024169921875 0.666 C 4.791024169921875 0.666 4.795524169921875 0.666 4.800024169921875 0.6645 C 4.878024169921875 0.5865 5.004024169921875 0.30300000000000005 4.995024169921875 0.18900000000000006 C 4.993524169921875 0.17999999999999994 4.993524169921875 0.1725000000000001 4.993524169921875 0.1665000000000001 C 4.989024169921875 0.15149999999999997 4.953024169921875 0.1319999999999999 4.942524169921875 0.135 L 4.935024169921875 0.135 C 4.924524169921875 0.135 4.903524169921875 0.14100000000000001 4.899024169921875 0.14549999999999996 C 4.893024169921875 0.16349999999999998 4.870524169921875 0.1875 4.860024169921875 0.20550000000000002 C 4.764024169921875 0.357 4.678524169921875 0.5805 4.627524169921875 0.7484999999999999 C 4.623024169921875 0.756 4.617024169921875 0.78 4.611024169921875 0.7845 C 4.605024169921875 0.7905 4.597524169921875 0.789 4.590024169921875 0.792 L 4.590024169921875 0.7935000000000001 C 4.590024169921875 0.798 4.606524169921875 0.8055 4.608024169921875 0.8069999999999999 C 4.606524169921875 0.81 4.591524169921875 0.8595 4.590024169921875 0.8685 C 4.536024169921875 1.0395 4.497024169921875 1.248 4.510524169921875 1.404 C 4.518024169921875 1.494 4.542024169921875 1.617 4.654524169921875 1.617 C 4.659024169921875 1.6155 4.660524169921875 1.6155 4.663524169921875 1.6155 L 4.665024169921875 1.6095000000000002 C 4.687524169921875 1.6035 4.725024169921875 1.581 4.732524169921875 1.5615 C 4.752024169921875 1.5405 4.777524169921875 1.4985 4.786524169921875 1.473 L 4.785024169921875 1.4775 L 4.786524169921875 1.476 C 4.831524169921875 1.3875 4.839024169921875 1.197 4.822524169921875 1.107 C 4.807524169921875 1.0425 4.791024169921875 0.9555 4.764024169921875 0.897 L 4.761024169921875 0.888 C 4.842024169921875 0.879 4.956024169921875 0.8475 5.002524169921875 0.8115 C 5.010024169921875 0.8055 5.022024169921875 0.8055 5.029524169921875 0.7995 L 5.041524169921875 0.7875000000000001 L 5.040024169921875 0.783 L 5.032524169921875 0.783 L 5.050524169921875 0.774 L 5.049024169921875 0.765 L 5.041524169921875 0.765 L 5.049024169921875 0.7605 L 5.046024169921875 0.7545 C 5.019024169921875 0.762 4.998024169921875 0.7785 4.977024169921875 0.7815000000000001 C 4.926024169921875 0.7935000000000001 4.807524169921875 0.825 4.732524169921875 0.8295 C 4.728024169921875 0.825 4.725024169921875 0.819 4.719024169921875 0.8145 M 4.755024169921875 1.176 C 4.764024169921875 1.275 4.749024169921875 1.404 4.707024169921875 1.4955 C 4.699524169921875 1.512 4.686024169921875 1.5465 4.665024169921875 1.548 C 4.663524169921875 1.548 4.662024169921875 1.548 4.660524169921875 1.548 C 4.611024169921875 1.548 4.600524169921875 1.44 4.597524169921875 1.4100000000000001 C 4.593024169921875 1.3815 4.600524169921875 1.3515000000000001 4.599024169921875 1.3245 C 4.599024169921875 1.323 4.597524169921875 1.3185 4.597524169921875 1.3155000000000001 C 4.611024169921875 1.1400000000000001 4.656024169921875 0.9510000000000001 4.680024169921875 0.8805000000000001 C 4.683024169921875 0.882 4.686024169921875 0.8835 4.689024169921875 0.8865000000000001 C 4.726524169921875 0.978 4.746024169921875 1.077 4.755024169921875 1.176 M 5.03105859375 0.6930000000000001 L 5.03705859375 0.6900000000000001 L 5.04305859375 0.6900000000000001 L 5.04905859375 0.6825 L 5.04905859375 0.6900000000000001 C 5.06255859375 0.6795 5.10455859375 0.6585 5.10455859375 0.6405 C 5.10455859375 0.6405 5.10455859375 0.639 5.10305859375 0.6375 L 5.09705859375 0.636 L 5.09705859375 0.621 C 5.09105859375 0.6135 5.08505859375 0.6105 5.07155859375 0.6105 C 5.06405859375 0.6105 5.05805859375 0.612 5.04905859375 0.6135 C 5.02505859375 0.63 5.01305859375 0.6495 5.01005859375 0.6735 C 5.01005859375 0.6765 5.01455859375 0.6855 5.01755859375 0.6855 L 5.02205859375 0.6855 L 5.03105859375 0.6915 M 5.25905859375 0.819 L 5.25605859375 0.8235 L 5.25155859375 0.825 C 5.14805859375 0.954 5.04305859375 1.116 4.99505859375 1.113 C 4.98905859375 1.113 4.98755859375 1.1115 4.98755859375 1.107 C 4.97255859375 1.0350000000000001 5.03255859375 0.8925000000000001 5.05955859375 0.774 C 5.06105859375 0.765 5.05805859375 0.75 5.05655859375 0.741 C 5.05055859375 0.735 5.04455859375 0.7305 5.03255859375 0.7290000000000001 C 5.02355859375 0.7290000000000001 5.01905859375 0.7230000000000001 5.00855859375 0.7230000000000001 C 5.00705859375 0.7230000000000001 5.00705859375 0.7230000000000001 5.00555859375 0.7230000000000001 L 5.00105859375 0.7275 C 4.98755859375 0.759 4.90505859375 0.9375 4.89905859375 1.0425 C 4.89605859375 1.1235 4.94405859375 1.158 4.99055859375 1.17 C 5.01755859375 1.17 5.03255859375 1.158 5.05505859375 1.1475 C 5.12705859375 1.086 5.17955859375 1.0155 5.24255859375 0.9195 C 5.23955859375 0.9195 5.24255859375 0.918 5.24255859375 0.9165000000000001 C 5.24705859375 0.9045000000000001 5.25155859375 0.8835 5.25755859375 0.8714999999999999 L 5.25605859375 0.87 C 5.25755859375 0.8654999999999999 5.25905859375 0.861 5.25905859375 0.8565 C 5.25905859375 0.8445 5.25755859375 0.8325 5.25905859375 0.819 M 5.590540283203125 0.8265 C 5.574040283203125 0.8355 5.541040283203125 0.891 5.529040283203125 0.909 C 5.487040283203125 0.9705 5.350540283203125 1.1340000000000001 5.280040283203125 1.1340000000000001 C 5.196040283203125 1.1340000000000001 5.262040283203125 0.933 5.281540283203125 0.8955 C 5.292040283203125 0.894 5.458540283203125 0.888 5.458540283203125 0.7515000000000001 C 5.458540283203125 0.7170000000000001 5.443540283203125 0.7065 5.413540283203125 0.6975 C 5.404540283203125 0.6930000000000001 5.367040283203125 0.681 5.356540283203125 0.681 C 5.350540283203125 0.681 5.331040283203125 0.681 5.329540283203125 0.684 L 5.326540283203125 0.6885 C 5.248540283203125 0.7484999999999999 5.166040283203125 0.921 5.160040283203125 1.0245 C 5.155540283203125 1.119 5.191540283203125 1.176 5.287540283203125 1.1895 C 5.290540283203125 1.1895 5.293540283203125 1.191 5.298040283203125 1.191 C 5.383540283203125 1.191 5.532040283203125 1.0275 5.569540283203125 0.9285 C 5.575540283203125 0.9135 5.590540283203125 0.897 5.592040283203125 0.8775 L 5.587540283203125 0.873 C 5.587540283203125 0.873 5.5845402832031255 0.8714999999999999 5.5845402832031255 0.87 C 5.5845402832031255 0.8625 5.592040283203125 0.8520000000000001 5.592040283203125 0.843 L 5.587540283203125 0.837 C 5.590540283203125 0.8340000000000001 5.590540283203125 0.8295 5.590540283203125 0.8265 M 5.380540283203125 0.738 C 5.412040283203125 0.7695000000000001 5.371540283203125 0.8235 5.308540283203125 0.837 C 5.326540283203125 0.8055 5.368540283203125 0.7455 5.380540283203125 0.738" fill="#000000" fill-rule="nonzero"></path></g><g></g></g><defs><clipPath id="SvgjsClipPath1001"><path d=" M 5.942510986328125 -0.6659795372544789 h 3.3560411293625387 v 2.545459074508958 h -3.3560411293625387 Z"></path></clipPath><clipPath id="SvgjsClipPath1000ac158792-80d2-4da0-8f17-c4799cf10b38"><path d=" M 5.942510986328125 -0.665979537254479 L 9.298552115690665 -0.665979537254479 L 9.298552115690665 1.879479537254479 L 5.942510986328125 1.879479537254479 Z"></path></clipPath></defs></svg>